<svg xmlns="http://www.w3.org/2000/svg" viewBox="0 0 543 661" fill="none" stroke="#000" stroke-miterlimit="10"
  stroke-width="3">
  <path
    d="m137.9 376.4 4.4-28.9-60.4-19-10.5 15.4c-2.3 3.4-.8 8 3 9.4l63.5 23.1Zm-63.7-64.1 44.8-28.4-19.4-28.5-56.4 40.2a4.9 4.9 0 0 0 1.5 8.7l29.5 8Z" />
  <path
    d="M540.4 563.1 353.3 229.7a49.5 49.5 0 0 0-16-17.1l-92.8-60.5-80.7 57.5-24.8 17.7-39.4 28 19.4 28.5-44.7 28.3v.1c24.1 1.4 47.9-5.3 67.7-19.2l36.3-25.5 4.8-3.4 20.8-2.2c6.4-.7 12.7 2.2 16.5 7.4l6 6.5a35.1 35.1 0 0 1 6 38.9l-3.7 7.8L126.1 309A46.1 46.1 0 0 0 82 328.6l60.4 19-4.4 28.9 159 57.8 64.2 224.2 179.2-95.4Z" />
  <path
    d="m163.8 209.7 80.7-57.5L73.2 40.6 51.7 64.5 2.1 33.1a59 59 0 0 0 16.1 33.3l29.2 28.7.3.3 116.1 114.3ZM2 32.7l.1.4m71.1 7.5-.9-.6" />
  <path
    d="m51.7 64.5 21.5-23.9-.9-.6L15.1 2.7a7.2 7.2 0 0 0-11 4.7l-1.4 7.2a57.6 57.6 0 0 0-.6 18.5l49.6 31.4ZM2.1 33.1 2 33m71.2 7.6v-.1M139 227.3l24.8-17.6L47.6 95.3l-.3-.3a46.9 46.9 0 0 0 9.3 47l82.4 85.3Zm.3.3-.3-.3M47.6 95.6v-.3m181.1 227.4-50.4-55.1" />
</svg>